<?xml version="1.0" encoding="us-ascii" standalone="no"?><svg xmlns="http://www.w3.org/2000/svg" xmlns:xlink="http://www.w3.org/1999/xlink" contentStyleType="text/css" height="691px" preserveAspectRatio="none" style="width:1229px;height:691px;background:#FFFFFF;" version="1.1" viewBox="0 0 1229 691" width="1229px" zoomAndPan="magnify"><defs/><g><!--class User--><g id="elem_User"><rect codeLine="3" fill="#F1F1F1" height="325.0469" id="User" rx="2.5" ry="2.5" style="stroke:#181818;stroke-width:0.5;" width="302" x="284" y="7"/><ellipse cx="415.25" cy="23" fill="#ADD1B2" rx="11" ry="11" style="stroke:#181818;stroke-width:1.0;"/><path d="M414.0469,23.875 L415.5,23.875 L415.5,23.9844 C415.5,24.3906 415.5313,24.5469 415.6094,24.7031 C415.7656,24.9531 416.0469,25.1094 416.3438,25.1094 C416.5938,25.1094 416.8594,24.9688 417.0156,24.75 C417.1406,24.5938 417.1719,24.4375 417.1719,23.9844 L417.1719,22.0625 C417.1719,21.9063 417.1719,21.8594 417.1563,21.7031 C417.0938,21.2344 416.7813,20.9219 416.3281,20.9219 C416.0781,20.9219 415.8125,21.0625 415.6406,21.2813 C415.5313,21.4531 415.5,21.6094 415.5,22.0625 L415.5,22.1875 L414.0469,22.1875 L414.0469,19.7813 L418.0313,19.7813 L418.0313,20.6406 C418.0313,21.0469 418.0625,21.2188 418.1406,21.375 C418.3125,21.625 418.5938,21.7813 418.875,21.7813 C419.1406,21.7813 419.4063,21.6406 419.5781,21.4219 C419.6875,21.25 419.7188,21.1094 419.7188,20.6406 L419.7188,18.0938 L412.0938,18.0938 C411.6563,18.0938 411.5313,18.1094 411.375,18.2031 C411.125,18.3594 410.9688,18.6563 410.9688,18.9375 C410.9688,19.2188 411.1094,19.4688 411.3281,19.6406 C411.4844,19.75 411.6719,19.7813 412.0938,19.7813 L412.3438,19.7813 L412.3438,26.2969 L412.0938,26.2969 C411.6875,26.2969 411.5313,26.3125 411.375,26.4219 C411.125,26.5938 410.9688,26.8594 410.9688,27.1563 C410.9688,27.4219 411.1094,27.6719 411.3281,27.8281 C411.4688,27.9531 411.7031,28 412.0938,28 L420.0938,28 L420.0938,25.4219 C420.0938,24.9844 420.0625,24.8438 419.9844,24.6875 C419.8125,24.4375 419.5313,24.2813 419.25,24.2813 C418.9844,24.2813 418.7188,24.3906 418.5469,24.6406 C418.4375,24.7969 418.4063,24.9375 418.4063,25.4219 L418.4063,26.2969 L414.0469,26.2969 L414.0469,23.875 Z " fill="#000000"/><text fill="#000000" font-family="sans-serif" font-size="14" lengthAdjust="spacing" textLength="31" x="435.75" y="27.8467">User</text><line style="stroke:#181818;stroke-width:0.5;" x1="285" x2="585" y1="39" y2="39"/><ellipse cx="295" cy="52.6484" fill="#000000" rx="3" ry="3" style="stroke:#000000;stroke-width:1.0;"/><text fill="#000000" font-family="sans-serif" font-size="14" lengthAdjust="spacing" textLength="66" x="304" y="55.9951">id: String</text><ellipse cx="295" cy="68.9453" fill="#000000" rx="3" ry="3" style="stroke:#000000;stroke-width:1.0;"/><text fill="#000000" font-family="sans-serif" font-size="14" lengthAdjust="spacing" textLength="92" x="304" y="72.292">email: String</text><ellipse cx="295" cy="85.2422" fill="#000000" rx="3" ry="3" style="stroke:#000000;stroke-width:1.0;"/><text fill="#000000" font-family="sans-serif" font-size="14" lengthAdjust="spacing" textLength="99" x="304" y="88.5889">phone: String</text><ellipse cx="295" cy="101.5391" fill="#000000" rx="3" ry="3" style="stroke:#000000;stroke-width:1.0;"/><text fill="#000000" font-family="sans-serif" font-size="14" lengthAdjust="spacing" textLength="160" x="304" y="104.8857">password_hash: String</text><ellipse cx="295" cy="117.8359" fill="#000000" rx="3" ry="3" style="stroke:#000000;stroke-width:1.0;"/><text fill="#000000" font-family="sans-serif" font-size="14" lengthAdjust="spacing" textLength="93" x="304" y="121.1826">name: String</text><ellipse cx="295" cy="134.1328" fill="#000000" rx="3" ry="3" style="stroke:#000000;stroke-width:1.0;"/><text fill="#000000" font-family="sans-serif" font-size="14" lengthAdjust="spacing" textLength="153" x="304" y="137.4795">fantasy_name: String</text><ellipse cx="295" cy="150.4297" fill="#000000" rx="3" ry="3" style="stroke:#000000;stroke-width:1.0;"/><text fill="#000000" font-family="sans-serif" font-size="14" lengthAdjust="spacing" textLength="126" x="304" y="153.7764">document: String</text><text fill="#000000" font-family="sans-serif" font-size="14" lengthAdjust="spacing" textLength="105" x="304" y="170.0732">avatar: String?</text><ellipse cx="295" cy="183.0234" fill="#000000" rx="3" ry="3" style="stroke:#000000;stroke-width:1.0;"/><text fill="#000000" font-family="sans-serif" font-size="14" lengthAdjust="spacing" textLength="87" x="304" y="186.3701">type: String</text><ellipse cx="295" cy="199.3203" fill="#000000" rx="3" ry="3" style="stroke:#000000;stroke-width:1.0;"/><text fill="#000000" font-family="sans-serif" font-size="14" lengthAdjust="spacing" textLength="158" x="304" y="202.667">created_at: DateTime</text><ellipse cx="295" cy="215.6172" fill="#000000" rx="3" ry="3" style="stroke:#000000;stroke-width:1.0;"/><text fill="#000000" font-family="sans-serif" font-size="14" lengthAdjust="spacing" textLength="162" x="304" y="218.9639">updated_at: DateTime</text><text fill="#000000" font-family="sans-serif" font-size="14" lengthAdjust="spacing" textLength="253" x="304" y="235.2607">password_update_time: DateTime?</text><ellipse cx="295" cy="248.2109" fill="#000000" rx="3" ry="3" style="stroke:#000000;stroke-width:1.0;"/><text fill="#000000" font-family="sans-serif" font-size="14" lengthAdjust="spacing" textLength="171" x="304" y="251.5576">UserToken: UserToken[]</text><ellipse cx="295" cy="264.5078" fill="#000000" rx="3" ry="3" style="stroke:#000000;stroke-width:1.0;"/><text fill="#000000" font-family="sans-serif" font-size="14" lengthAdjust="spacing" textLength="109" x="304" y="267.8545">UserIp: UserIp[]</text><ellipse cx="295" cy="280.8047" fill="#000000" rx="3" ry="3" style="stroke:#000000;stroke-width:1.0;"/><text fill="#000000" font-family="sans-serif" font-size="14" lengthAdjust="spacing" textLength="195" x="304" y="284.1514">UserAddress: UserAddress[]</text><ellipse cx="295" cy="297.1016" fill="#000000" rx="3" ry="3" style="stroke:#000000;stroke-width:1.0;"/><text fill="#000000" font-family="sans-serif" font-size="14" lengthAdjust="spacing" textLength="276" x="304" y="300.4482">permission_groups: PermissionGroup[]</text><ellipse cx="295" cy="313.3984" fill="#000000" rx="3" ry="3" style="stroke:#000000;stroke-width:1.0;"/><text fill="#000000" font-family="sans-serif" font-size="14" lengthAdjust="spacing" textLength="183" x="304" y="316.7451">permissions: Permission[]</text><line style="stroke:#181818;stroke-width:0.5;" x1="285" x2="585" y1="324.0469" y2="324.0469"/></g><!--class UserToken--><g id="elem_UserToken"><rect codeLine="23" fill="#F1F1F1" height="145.7813" id="UserToken" rx="2.5" ry="2.5" style="stroke:#181818;stroke-width:0.5;" width="188" x="7" y="465"/><ellipse cx="58.75" cy="481" fill="#ADD1B2" rx="11" ry="11" style="stroke:#181818;stroke-width:1.0;"/><path d="M57.5469,481.875 L59,481.875 L59,481.9844 C59,482.3906 59.0313,482.5469 59.1094,482.7031 C59.2656,482.9531 59.5469,483.1094 59.8438,483.1094 C60.0938,483.1094 60.3594,482.9688 60.5156,482.75 C60.6406,482.5938 60.6719,482.4375 60.6719,481.9844 L60.6719,480.0625 C60.6719,479.9063 60.6719,479.8594 60.6563,479.7031 C60.5938,479.2344 60.2813,478.9219 59.8281,478.9219 C59.5781,478.9219 59.3125,479.0625 59.1406,479.2813 C59.0313,479.4531 59,479.6094 59,480.0625 L59,480.1875 L57.5469,480.1875 L57.5469,477.7813 L61.5313,477.7813 L61.5313,478.6406 C61.5313,479.0469 61.5625,479.2188 61.6406,479.375 C61.8125,479.625 62.0938,479.7813 62.375,479.7813 C62.6406,479.7813 62.9063,479.6406 63.0781,479.4219 C63.1875,479.25 63.2188,479.1094 63.2188,478.6406 L63.2188,476.0938 L55.5938,476.0938 C55.1563,476.0938 55.0313,476.1094 54.875,476.2031 C54.625,476.3594 54.4688,476.6563 54.4688,476.9375 C54.4688,477.2188 54.6094,477.4688 54.8281,477.6406 C54.9844,477.75 55.1719,477.7813 55.5938,477.7813 L55.8438,477.7813 L55.8438,484.2969 L55.5938,484.2969 C55.1875,484.2969 55.0313,484.3125 54.875,484.4219 C54.625,484.5938 54.4688,484.8594 54.4688,485.1563 C54.4688,485.4219 54.6094,485.6719 54.8281,485.8281 C54.9688,485.9531 55.2031,486 55.5938,486 L63.5938,486 L63.5938,483.4219 C63.5938,482.9844 63.5625,482.8438 63.4844,482.6875 C63.3125,482.4375 63.0313,482.2813 62.75,482.2813 C62.4844,482.2813 62.2188,482.3906 62.0469,482.6406 C61.9375,482.7969 61.9063,482.9375 61.9063,483.4219 L61.9063,484.2969 L57.5469,484.2969 L57.5469,481.875 Z " fill="#000000"/><text fill="#000000" font-family="sans-serif" font-size="14" lengthAdjust="spacing" textLength="76" x="79.25" y="485.8467">UserToken</text><line style="stroke:#181818;stroke-width:0.5;" x1="8" x2="194" y1="497" y2="497"/><ellipse cx="18" cy="510.6484" fill="#000000" rx="3" ry="3" style="stroke:#000000;stroke-width:1.0;"/><text fill="#000000" font-family="sans-serif" font-size="14" lengthAdjust="spacing" textLength="66" x="27" y="513.9951">id: String</text><ellipse cx="18" cy="526.9453" fill="#000000" rx="3" ry="3" style="stroke:#000000;stroke-width:1.0;"/><text fill="#000000" font-family="sans-serif" font-size="14" lengthAdjust="spacing" textLength="103" x="27" y="530.292">user_id: String</text><ellipse cx="18" cy="543.2422" fill="#000000" rx="3" ry="3" style="stroke:#000000;stroke-width:1.0;"/><text fill="#000000" font-family="sans-serif" font-size="14" lengthAdjust="spacing" textLength="70" x="27" y="546.5889">user: User</text><ellipse cx="18" cy="559.5391" fill="#000000" rx="3" ry="3" style="stroke:#000000;stroke-width:1.0;"/><text fill="#000000" font-family="sans-serif" font-size="14" lengthAdjust="spacing" textLength="96" x="27" y="562.8857">token: String</text><ellipse cx="18" cy="575.8359" fill="#000000" rx="3" ry="3" style="stroke:#000000;stroke-width:1.0;"/><text fill="#000000" font-family="sans-serif" font-size="14" lengthAdjust="spacing" textLength="158" x="27" y="579.1826">created_at: DateTime</text><ellipse cx="18" cy="592.1328" fill="#000000" rx="3" ry="3" style="stroke:#000000;stroke-width:1.0;"/><text fill="#000000" font-family="sans-serif" font-size="14" lengthAdjust="spacing" textLength="162" x="27" y="595.4795">updated_at: DateTime</text><line style="stroke:#181818;stroke-width:0.5;" x1="8" x2="194" y1="602.7813" y2="602.7813"/></g><!--class UserIp--><g id="elem_UserIp"><rect codeLine="32" fill="#F1F1F1" height="162.0781" id="UserIp" rx="2.5" ry="2.5" style="stroke:#181818;stroke-width:0.5;" width="188" x="230" y="457"/><ellipse cx="297.25" cy="473" fill="#ADD1B2" rx="11" ry="11" style="stroke:#181818;stroke-width:1.0;"/><path d="M296.0469,473.875 L297.5,473.875 L297.5,473.9844 C297.5,474.3906 297.5313,474.5469 297.6094,474.7031 C297.7656,474.9531 298.0469,475.1094 298.3438,475.1094 C298.5938,475.1094 298.8594,474.9688 299.0156,474.75 C299.1406,474.5938 299.1719,474.4375 299.1719,473.9844 L299.1719,472.0625 C299.1719,471.9063 299.1719,471.8594 299.1563,471.7031 C299.0938,471.2344 298.7813,470.9219 298.3281,470.9219 C298.0781,470.9219 297.8125,471.0625 297.6406,471.2813 C297.5313,471.4531 297.5,471.6094 297.5,472.0625 L297.5,472.1875 L296.0469,472.1875 L296.0469,469.7813 L300.0313,469.7813 L300.0313,470.6406 C300.0313,471.0469 300.0625,471.2188 300.1406,471.375 C300.3125,471.625 300.5938,471.7813 300.875,471.7813 C301.1406,471.7813 301.4063,471.6406 301.5781,471.4219 C301.6875,471.25 301.7188,471.1094 301.7188,470.6406 L301.7188,468.0938 L294.0938,468.0938 C293.6563,468.0938 293.5313,468.1094 293.375,468.2031 C293.125,468.3594 292.9688,468.6563 292.9688,468.9375 C292.9688,469.2188 293.1094,469.4688 293.3281,469.6406 C293.4844,469.75 293.6719,469.7813 294.0938,469.7813 L294.3438,469.7813 L294.3438,476.2969 L294.0938,476.2969 C293.6875,476.2969 293.5313,476.3125 293.375,476.4219 C293.125,476.5938 292.9688,476.8594 292.9688,477.1563 C292.9688,477.4219 293.1094,477.6719 293.3281,477.8281 C293.4688,477.9531 293.7031,478 294.0938,478 L302.0938,478 L302.0938,475.4219 C302.0938,474.9844 302.0625,474.8438 301.9844,474.6875 C301.8125,474.4375 301.5313,474.2813 301.25,474.2813 C300.9844,474.2813 300.7188,474.3906 300.5469,474.6406 C300.4375,474.7969 300.4063,474.9375 300.4063,475.4219 L300.4063,476.2969 L296.0469,476.2969 L296.0469,473.875 Z " fill="#000000"/><text fill="#000000" font-family="sans-serif" font-size="14" lengthAdjust="spacing" textLength="45" x="317.75" y="477.8467">UserIp</text><line style="stroke:#181818;stroke-width:0.5;" x1="231" x2="417" y1="489" y2="489"/><ellipse cx="241" cy="502.6484" fill="#000000" rx="3" ry="3" style="stroke:#000000;stroke-width:1.0;"/><text fill="#000000" font-family="sans-serif" font-size="14" lengthAdjust="spacing" textLength="66" x="250" y="505.9951">id: String</text><ellipse cx="241" cy="518.9453" fill="#000000" rx="3" ry="3" style="stroke:#000000;stroke-width:1.0;"/><text fill="#000000" font-family="sans-serif" font-size="14" lengthAdjust="spacing" textLength="103" x="250" y="522.292">user_id: String</text><ellipse cx="241" cy="535.2422" fill="#000000" rx="3" ry="3" style="stroke:#000000;stroke-width:1.0;"/><text fill="#000000" font-family="sans-serif" font-size="14" lengthAdjust="spacing" textLength="70" x="250" y="538.5889">user: User</text><ellipse cx="241" cy="551.5391" fill="#000000" rx="3" ry="3" style="stroke:#000000;stroke-width:1.0;"/><text fill="#000000" font-family="sans-serif" font-size="14" lengthAdjust="spacing" textLength="67" x="250" y="554.8857">ip: String</text><ellipse cx="241" cy="567.8359" fill="#000000" rx="3" ry="3" style="stroke:#000000;stroke-width:1.0;"/><text fill="#000000" font-family="sans-serif" font-size="14" lengthAdjust="spacing" textLength="86" x="250" y="571.1826">local: String</text><ellipse cx="241" cy="584.1328" fill="#000000" rx="3" ry="3" style="stroke:#000000;stroke-width:1.0;"/><text fill="#000000" font-family="sans-serif" font-size="14" lengthAdjust="spacing" textLength="158" x="250" y="587.4795">created_at: DateTime</text><ellipse cx="241" cy="600.4297" fill="#000000" rx="3" ry="3" style="stroke:#000000;stroke-width:1.0;"/><text fill="#000000" font-family="sans-serif" font-size="14" lengthAdjust="spacing" textLength="162" x="250" y="603.7764">updated_at: DateTime</text><line style="stroke:#181818;stroke-width:0.5;" x1="231" x2="417" y1="611.0781" y2="611.0781"/></g><!--class UserAddress--><g id="elem_UserAddress"><rect codeLine="42" fill="#F1F1F1" height="292.4531" id="UserAddress" rx="2.5" ry="2.5" style="stroke:#181818;stroke-width:0.5;" width="188" x="453" y="392"/><ellipse cx="498.75" cy="408" fill="#ADD1B2" rx="11" ry="11" style="stroke:#181818;stroke-width:1.0;"/><path d="M497.5469,408.875 L499,408.875 L499,408.9844 C499,409.3906 499.0313,409.5469 499.1094,409.7031 C499.2656,409.9531 499.5469,410.1094 499.8438,410.1094 C500.0938,410.1094 500.3594,409.9688 500.5156,409.75 C500.6406,409.5938 500.6719,409.4375 500.6719,408.9844 L500.6719,407.0625 C500.6719,406.9063 500.6719,406.8594 500.6563,406.7031 C500.5938,406.2344 500.2813,405.9219 499.8281,405.9219 C499.5781,405.9219 499.3125,406.0625 499.1406,406.2813 C499.0313,406.4531 499,406.6094 499,407.0625 L499,407.1875 L497.5469,407.1875 L497.5469,404.7813 L501.5313,404.7813 L501.5313,405.6406 C501.5313,406.0469 501.5625,406.2188 501.6406,406.375 C501.8125,406.625 502.0938,406.7813 502.375,406.7813 C502.6406,406.7813 502.9063,406.6406 503.0781,406.4219 C503.1875,406.25 503.2188,406.1094 503.2188,405.6406 L503.2188,403.0938 L495.5938,403.0938 C495.1563,403.0938 495.0313,403.1094 494.875,403.2031 C494.625,403.3594 494.4688,403.6563 494.4688,403.9375 C494.4688,404.2188 494.6094,404.4688 494.8281,404.6406 C494.9844,404.75 495.1719,404.7813 495.5938,404.7813 L495.8438,404.7813 L495.8438,411.2969 L495.5938,411.2969 C495.1875,411.2969 495.0313,411.3125 494.875,411.4219 C494.625,411.5938 494.4688,411.8594 494.4688,412.1563 C494.4688,412.4219 494.6094,412.6719 494.8281,412.8281 C494.9688,412.9531 495.2031,413 495.5938,413 L503.5938,413 L503.5938,410.4219 C503.5938,409.9844 503.5625,409.8438 503.4844,409.6875 C503.3125,409.4375 503.0313,409.2813 502.75,409.2813 C502.4844,409.2813 502.2188,409.3906 502.0469,409.6406 C501.9375,409.7969 501.9063,409.9375 501.9063,410.4219 L501.9063,411.2969 L497.5469,411.2969 L497.5469,408.875 Z " fill="#000000"/><text fill="#000000" font-family="sans-serif" font-size="14" lengthAdjust="spacing" textLength="88" x="519.25" y="412.8467">UserAddress</text><line style="stroke:#181818;stroke-width:0.5;" x1="454" x2="640" y1="424" y2="424"/><ellipse cx="464" cy="437.6484" fill="#000000" rx="3" ry="3" style="stroke:#000000;stroke-width:1.0;"/><text fill="#000000" font-family="sans-serif" font-size="14" lengthAdjust="spacing" textLength="66" x="473" y="440.9951">id: String</text><ellipse cx="464" cy="453.9453" fill="#000000" rx="3" ry="3" style="stroke:#000000;stroke-width:1.0;"/><text fill="#000000" font-family="sans-serif" font-size="14" lengthAdjust="spacing" textLength="103" x="473" y="457.292">user_id: String</text><ellipse cx="464" cy="470.2422" fill="#000000" rx="3" ry="3" style="stroke:#000000;stroke-width:1.0;"/><text fill="#000000" font-family="sans-serif" font-size="14" lengthAdjust="spacing" textLength="70" x="473" y="473.5889">user: User</text><ellipse cx="464" cy="486.5391" fill="#000000" rx="3" ry="3" style="stroke:#000000;stroke-width:1.0;"/><text fill="#000000" font-family="sans-serif" font-size="14" lengthAdjust="spacing" textLength="98" x="473" y="489.8857">street: String</text><ellipse cx="464" cy="502.8359" fill="#000000" rx="3" ry="3" style="stroke:#000000;stroke-width:1.0;"/><text fill="#000000" font-family="sans-serif" font-size="14" lengthAdjust="spacing" textLength="109" x="473" y="506.1826">number: String</text><ellipse cx="464" cy="519.1328" fill="#000000" rx="3" ry="3" style="stroke:#000000;stroke-width:1.0;"/><text fill="#000000" font-family="sans-serif" font-size="14" lengthAdjust="spacing" textLength="146" x="473" y="522.4795">complement: String</text><ellipse cx="464" cy="535.4297" fill="#000000" rx="3" ry="3" style="stroke:#000000;stroke-width:1.0;"/><text fill="#000000" font-family="sans-serif" font-size="14" lengthAdjust="spacing" textLength="105" x="473" y="538.7764">district: String</text><ellipse cx="464" cy="551.7266" fill="#000000" rx="3" ry="3" style="stroke:#000000;stroke-width:1.0;"/><text fill="#000000" font-family="sans-serif" font-size="14" lengthAdjust="spacing" textLength="80" x="473" y="555.0732">city: String</text><ellipse cx="464" cy="568.0234" fill="#000000" rx="3" ry="3" style="stroke:#000000;stroke-width:1.0;"/><text fill="#000000" font-family="sans-serif" font-size="14" lengthAdjust="spacing" textLength="91" x="473" y="571.3701">state: String</text><ellipse cx="464" cy="584.3203" fill="#000000" rx="3" ry="3" style="stroke:#000000;stroke-width:1.0;"/><text fill="#000000" font-family="sans-serif" font-size="14" lengthAdjust="spacing" textLength="108" x="473" y="587.667">country: String</text><ellipse cx="464" cy="600.6172" fill="#000000" rx="3" ry="3" style="stroke:#000000;stroke-width:1.0;"/><text fill="#000000" font-family="sans-serif" font-size="14" lengthAdjust="spacing" textLength="117" x="473" y="603.9639">zip_code: String</text><ellipse cx="464" cy="616.9141" fill="#000000" rx="3" ry="3" style="stroke:#000000;stroke-width:1.0;"/><text fill="#000000" font-family="sans-serif" font-size="14" lengthAdjust="spacing" textLength="123" x="473" y="620.2607">latitude: Decimal</text><ellipse cx="464" cy="633.2109" fill="#000000" rx="3" ry="3" style="stroke:#000000;stroke-width:1.0;"/><text fill="#000000" font-family="sans-serif" font-size="14" lengthAdjust="spacing" textLength="135" x="473" y="636.5576">longitude: Decimal</text><ellipse cx="464" cy="649.5078" fill="#000000" rx="3" ry="3" style="stroke:#000000;stroke-width:1.0;"/><text fill="#000000" font-family="sans-serif" font-size="14" lengthAdjust="spacing" textLength="158" x="473" y="652.8545">created_at: DateTime</text><ellipse cx="464" cy="665.8047" fill="#000000" rx="3" ry="3" style="stroke:#000000;stroke-width:1.0;"/><text fill="#000000" font-family="sans-serif" font-size="14" lengthAdjust="spacing" textLength="162" x="473" y="669.1514">updated_at: DateTime</text><line style="stroke:#181818;stroke-width:0.5;" x1="454" x2="640" y1="676.4531" y2="676.4531"/></g><!--class Permission--><g id="elem_Permission"><rect codeLine="60" fill="#F1F1F1" height="162.0781" id="Permission" rx="2.5" ry="2.5" style="stroke:#181818;stroke-width:0.5;" width="302" x="676" y="457"/><ellipse cx="783.75" cy="473" fill="#ADD1B2" rx="11" ry="11" style="stroke:#181818;stroke-width:1.0;"/><path d="M782.5469,473.875 L784,473.875 L784,473.9844 C784,474.3906 784.0313,474.5469 784.1094,474.7031 C784.2656,474.9531 784.5469,475.1094 784.8438,475.1094 C785.0938,475.1094 785.3594,474.9688 785.5156,474.75 C785.6406,474.5938 785.6719,474.4375 785.6719,473.9844 L785.6719,472.0625 C785.6719,471.9063 785.6719,471.8594 785.6563,471.7031 C785.5938,471.2344 785.2813,470.9219 784.8281,470.9219 C784.5781,470.9219 784.3125,471.0625 784.1406,471.2813 C784.0313,471.4531 784,471.6094 784,472.0625 L784,472.1875 L782.5469,472.1875 L782.5469,469.7813 L786.5313,469.7813 L786.5313,470.6406 C786.5313,471.0469 786.5625,471.2188 786.6406,471.375 C786.8125,471.625 787.0938,471.7813 787.375,471.7813 C787.6406,471.7813 787.9063,471.6406 788.0781,471.4219 C788.1875,471.25 788.2188,471.1094 788.2188,470.6406 L788.2188,468.0938 L780.5938,468.0938 C780.1563,468.0938 780.0313,468.1094 779.875,468.2031 C779.625,468.3594 779.4688,468.6563 779.4688,468.9375 C779.4688,469.2188 779.6094,469.4688 779.8281,469.6406 C779.9844,469.75 780.1719,469.7813 780.5938,469.7813 L780.8438,469.7813 L780.8438,476.2969 L780.5938,476.2969 C780.1875,476.2969 780.0313,476.3125 779.875,476.4219 C779.625,476.5938 779.4688,476.8594 779.4688,477.1563 C779.4688,477.4219 779.6094,477.6719 779.8281,477.8281 C779.9688,477.9531 780.2031,478 780.5938,478 L788.5938,478 L788.5938,475.4219 C788.5938,474.9844 788.5625,474.8438 788.4844,474.6875 C788.3125,474.4375 788.0313,474.2813 787.75,474.2813 C787.4844,474.2813 787.2188,474.3906 787.0469,474.6406 C786.9375,474.7969 786.9063,474.9375 786.9063,475.4219 L786.9063,476.2969 L782.5469,476.2969 L782.5469,473.875 Z " fill="#000000"/><text fill="#000000" font-family="sans-serif" font-size="14" lengthAdjust="spacing" textLength="78" x="804.25" y="477.8467">Permission</text><line style="stroke:#181818;stroke-width:0.5;" x1="677" x2="977" y1="489" y2="489"/><ellipse cx="687" cy="502.6484" fill="#000000" rx="3" ry="3" style="stroke:#000000;stroke-width:1.0;"/><text fill="#000000" font-family="sans-serif" font-size="14" lengthAdjust="spacing" textLength="66" x="696" y="505.9951">id: String</text><ellipse cx="687" cy="518.9453" fill="#000000" rx="3" ry="3" style="stroke:#000000;stroke-width:1.0;"/><text fill="#000000" font-family="sans-serif" font-size="14" lengthAdjust="spacing" textLength="93" x="696" y="522.292">name: String</text><ellipse cx="687" cy="535.2422" fill="#000000" rx="3" ry="3" style="stroke:#000000;stroke-width:1.0;"/><text fill="#000000" font-family="sans-serif" font-size="14" lengthAdjust="spacing" textLength="88" x="696" y="538.5889">label: String</text><ellipse cx="687" cy="551.5391" fill="#000000" rx="3" ry="3" style="stroke:#000000;stroke-width:1.0;"/><text fill="#000000" font-family="sans-serif" font-size="14" lengthAdjust="spacing" textLength="158" x="696" y="554.8857">created_at: DateTime</text><ellipse cx="687" cy="567.8359" fill="#000000" rx="3" ry="3" style="stroke:#000000;stroke-width:1.0;"/><text fill="#000000" font-family="sans-serif" font-size="14" lengthAdjust="spacing" textLength="162" x="696" y="571.1826">updated_at: DateTime</text><ellipse cx="687" cy="584.1328" fill="#000000" rx="3" ry="3" style="stroke:#000000;stroke-width:1.0;"/><text fill="#000000" font-family="sans-serif" font-size="14" lengthAdjust="spacing" textLength="87" x="696" y="587.4795">users: User[]</text><ellipse cx="687" cy="600.4297" fill="#000000" rx="3" ry="3" style="stroke:#000000;stroke-width:1.0;"/><text fill="#000000" font-family="sans-serif" font-size="14" lengthAdjust="spacing" textLength="276" x="696" y="603.7764">permission_groups: PermissionGroup[]</text><line style="stroke:#181818;stroke-width:0.5;" x1="677" x2="977" y1="611.0781" y2="611.0781"/></g><!--class PermissionGroup--><g id="elem_PermissionGroup"><rect codeLine="70" fill="#F1F1F1" height="145.7813" id="PermissionGroup" rx="2.5" ry="2.5" style="stroke:#181818;stroke-width:0.5;" width="209" x="1013.5" y="465"/><ellipse cx="1053.25" cy="481" fill="#ADD1B2" rx="11" ry="11" style="stroke:#181818;stroke-width:1.0;"/><path d="M1052.0469,481.875 L1053.5,481.875 L1053.5,481.9844 C1053.5,482.3906 1053.5313,482.5469 1053.6094,482.7031 C1053.7656,482.9531 1054.0469,483.1094 1054.3438,483.1094 C1054.5938,483.1094 1054.8594,482.9688 1055.0156,482.75 C1055.1406,482.5938 1055.1719,482.4375 1055.1719,481.9844 L1055.1719,480.0625 C1055.1719,479.9063 1055.1719,479.8594 1055.1563,479.7031 C1055.0938,479.2344 1054.7813,478.9219 1054.3281,478.9219 C1054.0781,478.9219 1053.8125,479.0625 1053.6406,479.2813 C1053.5313,479.4531 1053.5,479.6094 1053.5,480.0625 L1053.5,480.1875 L1052.0469,480.1875 L1052.0469,477.7813 L1056.0313,477.7813 L1056.0313,478.6406 C1056.0313,479.0469 1056.0625,479.2188 1056.1406,479.375 C1056.3125,479.625 1056.5938,479.7813 1056.875,479.7813 C1057.1406,479.7813 1057.4063,479.6406 1057.5781,479.4219 C1057.6875,479.25 1057.7188,479.1094 1057.7188,478.6406 L1057.7188,476.0938 L1050.0938,476.0938 C1049.6563,476.0938 1049.5313,476.1094 1049.375,476.2031 C1049.125,476.3594 1048.9688,476.6563 1048.9688,476.9375 C1048.9688,477.2188 1049.1094,477.4688 1049.3281,477.6406 C1049.4844,477.75 1049.6719,477.7813 1050.0938,477.7813 L1050.3438,477.7813 L1050.3438,484.2969 L1050.0938,484.2969 C1049.6875,484.2969 1049.5313,484.3125 1049.375,484.4219 C1049.125,484.5938 1048.9688,484.8594 1048.9688,485.1563 C1048.9688,485.4219 1049.1094,485.6719 1049.3281,485.8281 C1049.4688,485.9531 1049.7031,486 1050.0938,486 L1058.0938,486 L1058.0938,483.4219 C1058.0938,482.9844 1058.0625,482.8438 1057.9844,482.6875 C1057.8125,482.4375 1057.5313,482.2813 1057.25,482.2813 C1056.9844,482.2813 1056.7188,482.3906 1056.5469,482.6406 C1056.4375,482.7969 1056.4063,482.9375 1056.4063,483.4219 L1056.4063,484.2969 L1052.0469,484.2969 L1052.0469,481.875 Z " fill="#000000"/><text fill="#000000" font-family="sans-serif" font-size="14" lengthAdjust="spacing" textLength="122" x="1072.75" y="485.8467">PermissionGroup</text><line style="stroke:#181818;stroke-width:0.5;" x1="1014.5" x2="1221.5" y1="497" y2="497"/><ellipse cx="1024.5" cy="510.6484" fill="#000000" rx="3" ry="3" style="stroke:#000000;stroke-width:1.0;"/><text fill="#000000" font-family="sans-serif" font-size="14" lengthAdjust="spacing" textLength="66" x="1033.5" y="513.9951">id: String</text><ellipse cx="1024.5" cy="526.9453" fill="#000000" rx="3" ry="3" style="stroke:#000000;stroke-width:1.0;"/><text fill="#000000" font-family="sans-serif" font-size="14" lengthAdjust="spacing" textLength="93" x="1033.5" y="530.292">name: String</text><ellipse cx="1024.5" cy="543.2422" fill="#000000" rx="3" ry="3" style="stroke:#000000;stroke-width:1.0;"/><text fill="#000000" font-family="sans-serif" font-size="14" lengthAdjust="spacing" textLength="158" x="1033.5" y="546.5889">created_at: DateTime</text><ellipse cx="1024.5" cy="559.5391" fill="#000000" rx="3" ry="3" style="stroke:#000000;stroke-width:1.0;"/><text fill="#000000" font-family="sans-serif" font-size="14" lengthAdjust="spacing" textLength="162" x="1033.5" y="562.8857">updated_at: DateTime</text><ellipse cx="1024.5" cy="575.8359" fill="#000000" rx="3" ry="3" style="stroke:#000000;stroke-width:1.0;"/><text fill="#000000" font-family="sans-serif" font-size="14" lengthAdjust="spacing" textLength="183" x="1033.5" y="579.1826">permissions: Permission[]</text><ellipse cx="1024.5" cy="592.1328" fill="#000000" rx="3" ry="3" style="stroke:#000000;stroke-width:1.0;"/><text fill="#000000" font-family="sans-serif" font-size="14" lengthAdjust="spacing" textLength="87" x="1033.5" y="595.4795">users: User[]</text><line style="stroke:#181818;stroke-width:0.5;" x1="1014.5" x2="1221.5" y1="602.7813" y2="602.7813"/></g><!--link User to UserToken--><g id="link_User_UserToken"><path codeLine="79" d="M275.768,116 C275.768,116 69.6667,116 69.6667,116 C69.6667,116 69.6667,456.975 69.6667,456.975 " fill="none" id="User-UserToken" style="stroke:#181818;stroke-width:1.0;stroke-dasharray:7.0,7.0;"/><line style="stroke:#181818;stroke-width:1.0;" x1="279.768" x2="279.768" y1="112" y2="120"/><line style="stroke:#181818;stroke-width:1.0;" x1="276.768" x2="276.768" y1="112" y2="120"/><line style="stroke:#181818;stroke-width:1.0;" x1="275.768" x2="283.768" y1="116" y2="116"/><line style="stroke:#181818;stroke-width:1.0;" x1="69.6667" x2="75.6667" y1="456.975" y2="464.975"/><line style="stroke:#181818;stroke-width:1.0;" x1="69.6667" x2="63.6667" y1="456.975" y2="464.975"/><line style="stroke:#181818;stroke-width:1.0;" x1="69.6667" x2="69.6667" y1="456.975" y2="464.975"/><line style="stroke:#181818;stroke-width:1.0;" x1="73.6667" x2="65.6667" y1="454.975" y2="454.975"/></g><!--link User to UserToken--><g id="link_User_UserToken"><path codeLine="80" d="M275.667,224 C275.667,224 132.333,224 132.333,224 C132.333,224 132.333,456.777 132.333,456.777 " fill="none" id="User-UserToken-1" style="stroke:#181818;stroke-width:1.0;stroke-dasharray:7.0,7.0;"/><line style="stroke:#181818;stroke-width:1.0;" x1="279.667" x2="279.667" y1="220" y2="228"/><line style="stroke:#181818;stroke-width:1.0;" x1="276.667" x2="276.667" y1="220" y2="228"/><line style="stroke:#181818;stroke-width:1.0;" x1="275.667" x2="283.667" y1="224" y2="224"/><line style="stroke:#181818;stroke-width:1.0;" x1="132.333" x2="138.333" y1="456.777" y2="464.777"/><line style="stroke:#181818;stroke-width:1.0;" x1="132.333" x2="126.333" y1="456.777" y2="464.777"/><line style="stroke:#181818;stroke-width:1.0;" x1="132.333" x2="132.333" y1="456.777" y2="464.777"/><line style="stroke:#181818;stroke-width:1.0;" x1="136.333" x2="128.333" y1="454.777" y2="454.777"/></g><!--link User to UserIp--><g id="link_User_UserIp"><path codeLine="81" d="M351,340.202 C351,340.202 351,448.903 351,448.903 " fill="none" id="User-UserIp" style="stroke:#181818;stroke-width:1.0;stroke-dasharray:7.0,7.0;"/><line style="stroke:#181818;stroke-width:1.0;" x1="347" x2="355" y1="336.202" y2="336.202"/><line style="stroke:#181818;stroke-width:1.0;" x1="347" x2="355" y1="339.202" y2="339.202"/><line style="stroke:#181818;stroke-width:1.0;" x1="351" x2="351" y1="340.202" y2="332.202"/><line style="stroke:#181818;stroke-width:1.0;" x1="351" x2="357" y1="448.903" y2="456.903"/><line style="stroke:#181818;stroke-width:1.0;" x1="351" x2="345" y1="448.903" y2="456.903"/><line style="stroke:#181818;stroke-width:1.0;" x1="351" x2="351" y1="448.903" y2="456.903"/><line style="stroke:#181818;stroke-width:1.0;" x1="355" x2="347" y1="446.903" y2="446.903"/></g><!--link User to UserAddress--><g id="link_User_UserAddress"><path codeLine="82" d="M519.5,340.202 C519.5,340.202 519.5,383.855 519.5,383.855 " fill="none" id="User-UserAddress" style="stroke:#181818;stroke-width:1.0;stroke-dasharray:7.0,7.0;"/><line style="stroke:#181818;stroke-width:1.0;" x1="515.5" x2="523.5" y1="336.202" y2="336.202"/><line style="stroke:#181818;stroke-width:1.0;" x1="515.5" x2="523.5" y1="339.202" y2="339.202"/><line style="stroke:#181818;stroke-width:1.0;" x1="519.5" x2="519.5" y1="340.202" y2="332.202"/><line style="stroke:#181818;stroke-width:1.0;" x1="519.5" x2="525.5" y1="383.855" y2="391.855"/><line style="stroke:#181818;stroke-width:1.0;" x1="519.5" x2="513.5" y1="383.855" y2="391.855"/><line style="stroke:#181818;stroke-width:1.0;" x1="519.5" x2="519.5" y1="383.855" y2="391.855"/><line style="stroke:#181818;stroke-width:1.0;" x1="523.5" x2="515.5" y1="381.855" y2="381.855"/></g><!--link User to Permission--><g id="link_User_Permission"><path codeLine="83" d="M594.277,224 C594.277,224 827,224 827,224 C827,224 827,448.729 827,448.729 " fill="none" id="User-Permission" style="stroke:#181818;stroke-width:1.0;stroke-dasharray:7.0,7.0;"/><line style="stroke:#181818;stroke-width:1.0;" x1="594.277" x2="586.277" y1="224" y2="230"/><line style="stroke:#181818;stroke-width:1.0;" x1="594.277" x2="586.277" y1="224" y2="218"/><line style="stroke:#181818;stroke-width:1.0;" x1="594.277" x2="586.277" y1="224" y2="224"/><line style="stroke:#181818;stroke-width:1.0;" x1="596.277" x2="596.277" y1="228" y2="220"/><line style="stroke:#181818;stroke-width:1.0;" x1="827" x2="833" y1="448.729" y2="456.729"/><line style="stroke:#181818;stroke-width:1.0;" x1="827" x2="821" y1="448.729" y2="456.729"/><line style="stroke:#181818;stroke-width:1.0;" x1="827" x2="827" y1="448.729" y2="456.729"/><line style="stroke:#181818;stroke-width:1.0;" x1="831" x2="823" y1="446.729" y2="446.729"/></g><!--link User to PermissionGroup--><g id="link_User_PermissionGroup"><path codeLine="84" d="M594.156,116 C594.156,116 1118,116 1118,116 C1118,116 1118,456.975 1118,456.975 " fill="none" id="User-PermissionGroup" style="stroke:#181818;stroke-width:1.0;stroke-dasharray:7.0,7.0;"/><line style="stroke:#181818;stroke-width:1.0;" x1="594.156" x2="586.156" y1="116" y2="122"/><line style="stroke:#181818;stroke-width:1.0;" x1="594.156" x2="586.156" y1="116" y2="110"/><line style="stroke:#181818;stroke-width:1.0;" x1="594.156" x2="586.156" y1="116" y2="116"/><line style="stroke:#181818;stroke-width:1.0;" x1="596.156" x2="596.156" y1="120" y2="112"/><line style="stroke:#181818;stroke-width:1.0;" x1="1118" x2="1124" y1="456.975" y2="464.975"/><line style="stroke:#181818;stroke-width:1.0;" x1="1118" x2="1112" y1="456.975" y2="464.975"/><line style="stroke:#181818;stroke-width:1.0;" x1="1118" x2="1118" y1="456.975" y2="464.975"/><line style="stroke:#181818;stroke-width:1.0;" x1="1122" x2="1114" y1="454.975" y2="454.975"/></g><!--SRC=[hPJBRi8m44NtV8NNNV01sLILa2fsbKfNLHKDyPHO-2NRQPK2_rud3eGXGOAqgzZtZfFZUSHlXRRWG34fD8RQ8ZCkb6OsGnr4gDcRHyTsCyOUcE0PUmrEw4sxHGL24iMMHYDLmFjlutXUWY-9eq7Hq4_G0NoT3mnkYaf5cZCHlY20EmgFRLZ3JiuL3Y4Wpo6UNCJLIYXiZShoCUF4clmyY0Ra690-qcHZPRQeitxv_d6obZRhdcVY4-SElS_EDvrjqIdXlJ0wtpXJsHZqSfAU6sKGI4AYUo2LQe76orL5En_H4bTAORhPv1nIbgMT328iSQKfGFuRLrU2oN0-ECH0cxbIQtIKq2WhyQ9lOpEBU5mKL2mY6X5yYEWNhwjqS3JgHzYyC9m6IeWNhHfnWOLG8BiCwis8F3MDVGUEPt4mmnBMAFyqdQaCtHJTCpvZrArt8_hzeDU7TNYDIDV-OVVx-No_wsVuHdLf1rBNtaa_9Bs7k2At2Va5]--></g></svg>